<svg xmlns="http://www.w3.org/2000/svg" xmlns:xlink="http://www.w3.org/1999/xlink" width="250" zoomAndPan="magnify" viewBox="0 0 187.5 74.999997" height="100" preserveAspectRatio="xMidYMid meet" version="1.0"><defs><g/></defs><g fill="#ffffff" fill-opacity="1"><g transform="translate(5.25004, 53.416546)"><g><path d="M 0.46875 -38.78125 L 0.46875 -48.46875 L 34.546875 -48.46875 L 34.546875 -38.78125 L 23.03125 -38.78125 L 23.03125 0 L 11.984375 0 L 11.984375 -38.78125 Z M 0.46875 -38.78125 "/></g></g></g><g fill="#ffffff" fill-opacity="1"><g transform="translate(34.732218, 53.416546)"><g><path d="M 34.015625 -13.625 L 12.15625 -13.625 C 12.15625 -11.507812 12.84375 -9.941406 14.21875 -8.921875 C 15.59375 -7.910156 17.082031 -7.40625 18.6875 -7.40625 C 20.363281 -7.40625 21.691406 -7.628906 22.671875 -8.078125 C 23.648438 -8.523438 24.769531 -9.414062 26.03125 -10.75 L 33.546875 -6.984375 C 30.410156 -1.742188 25.203125 0.875 17.921875 0.875 C 13.378906 0.875 9.476562 -0.675781 6.21875 -3.78125 C 2.96875 -6.894531 1.34375 -10.644531 1.34375 -15.03125 C 1.34375 -19.425781 2.96875 -23.1875 6.21875 -26.3125 C 9.476562 -29.445312 13.378906 -31.015625 17.921875 -31.015625 C 22.703125 -31.015625 26.585938 -29.632812 29.578125 -26.875 C 32.578125 -24.113281 34.078125 -20.171875 34.078125 -15.046875 C 34.078125 -14.335938 34.054688 -13.863281 34.015625 -13.625 Z M 12.453125 -19.390625 L 23.90625 -19.390625 C 23.675781 -20.953125 23.0625 -22.15625 22.0625 -23 C 21.0625 -23.84375 19.78125 -24.265625 18.21875 -24.265625 C 16.488281 -24.265625 15.113281 -23.8125 14.09375 -22.90625 C 13.082031 -22.007812 12.535156 -20.835938 12.453125 -19.390625 Z M 12.453125 -19.390625 "/></g></g></g><g fill="#ffffff" fill-opacity="1"><g transform="translate(64.625524, 53.416546)"><g><path d="M 3.53125 0 L 3.53125 -30.140625 L 13.921875 -30.140625 L 13.921875 -25.796875 L 14.046875 -25.796875 C 14.117188 -25.953125 14.242188 -26.144531 14.421875 -26.375 C 14.597656 -26.613281 14.976562 -27.023438 15.5625 -27.609375 C 16.15625 -28.203125 16.785156 -28.734375 17.453125 -29.203125 C 18.117188 -29.671875 18.976562 -30.085938 20.03125 -30.453125 C 21.09375 -30.828125 22.171875 -31.015625 23.265625 -31.015625 C 24.398438 -31.015625 25.515625 -30.859375 26.609375 -30.546875 C 27.710938 -30.234375 28.515625 -29.921875 29.015625 -29.609375 L 29.84375 -29.140625 L 25.5 -20.328125 C 24.207031 -21.421875 22.40625 -21.96875 20.09375 -21.96875 C 18.84375 -21.96875 17.765625 -21.691406 16.859375 -21.140625 C 15.960938 -20.597656 15.328125 -19.9375 14.953125 -19.15625 C 14.578125 -18.375 14.3125 -17.707031 14.15625 -17.15625 C 14 -16.601562 13.921875 -16.171875 13.921875 -15.859375 L 13.921875 0 Z M 3.53125 0 "/></g></g></g><g fill="#ffffff" fill-opacity="1"><g transform="translate(88.351904, 53.416546)"><g><path d="M 34.015625 -13.625 L 12.15625 -13.625 C 12.15625 -11.507812 12.84375 -9.941406 14.21875 -8.921875 C 15.59375 -7.910156 17.082031 -7.40625 18.6875 -7.40625 C 20.363281 -7.40625 21.691406 -7.628906 22.671875 -8.078125 C 23.648438 -8.523438 24.769531 -9.414062 26.03125 -10.75 L 33.546875 -6.984375 C 30.410156 -1.742188 25.203125 0.875 17.921875 0.875 C 13.378906 0.875 9.476562 -0.675781 6.21875 -3.78125 C 2.96875 -6.894531 1.34375 -10.644531 1.34375 -15.03125 C 1.34375 -19.425781 2.96875 -23.1875 6.21875 -26.3125 C 9.476562 -29.445312 13.378906 -31.015625 17.921875 -31.015625 C 22.703125 -31.015625 26.585938 -29.632812 29.578125 -26.875 C 32.578125 -24.113281 34.078125 -20.171875 34.078125 -15.046875 C 34.078125 -14.335938 34.054688 -13.863281 34.015625 -13.625 Z M 12.453125 -19.390625 L 23.90625 -19.390625 C 23.675781 -20.953125 23.0625 -22.15625 22.0625 -23 C 21.0625 -23.84375 19.78125 -24.265625 18.21875 -24.265625 C 16.488281 -24.265625 15.113281 -23.8125 14.09375 -22.90625 C 13.082031 -22.007812 12.535156 -20.835938 12.453125 -19.390625 Z M 12.453125 -19.390625 "/></g></g></g><g fill="#ffffff" fill-opacity="1"><g transform="translate(118.24521, 53.416546)"><g><path d="M 16.625 -31.015625 C 18.351562 -31.015625 20.054688 -30.816406 21.734375 -30.421875 C 23.421875 -30.035156 24.675781 -29.644531 25.5 -29.25 L 26.734375 -28.671875 L 23.328125 -21.859375 C 20.972656 -23.109375 18.738281 -23.734375 16.625 -23.734375 C 15.445312 -23.734375 14.613281 -23.601562 14.125 -23.34375 C 13.632812 -23.09375 13.390625 -22.613281 13.390625 -21.90625 C 13.390625 -21.75 13.410156 -21.59375 13.453125 -21.4375 C 13.492188 -21.28125 13.570312 -21.132812 13.6875 -21 C 13.800781 -20.863281 13.90625 -20.742188 14 -20.640625 C 14.101562 -20.546875 14.269531 -20.441406 14.5 -20.328125 C 14.738281 -20.210938 14.925781 -20.125 15.0625 -20.0625 C 15.207031 -20 15.4375 -19.910156 15.75 -19.796875 C 16.0625 -19.679688 16.296875 -19.59375 16.453125 -19.53125 C 16.609375 -19.476562 16.867188 -19.390625 17.234375 -19.265625 C 17.609375 -19.148438 17.894531 -19.070312 18.09375 -19.03125 C 19.3125 -18.675781 20.367188 -18.285156 21.265625 -17.859375 C 22.171875 -17.429688 23.117188 -16.84375 24.109375 -16.09375 C 25.109375 -15.351562 25.882812 -14.414062 26.4375 -13.28125 C 26.988281 -12.144531 27.265625 -10.851562 27.265625 -9.40625 C 27.265625 -2.550781 22.503906 0.875 12.984375 0.875 C 10.828125 0.875 8.78125 0.546875 6.84375 -0.109375 C 4.90625 -0.773438 3.503906 -1.441406 2.640625 -2.109375 L 1.34375 -3.171875 L 5.578125 -10.28125 C 5.890625 -10.007812 6.300781 -9.6875 6.8125 -9.3125 C 7.320312 -8.9375 8.242188 -8.425781 9.578125 -7.78125 C 10.910156 -7.132812 12.066406 -6.8125 13.046875 -6.8125 C 15.203125 -6.8125 16.28125 -7.535156 16.28125 -8.984375 C 16.28125 -9.648438 16.003906 -10.171875 15.453125 -10.546875 C 14.898438 -10.921875 13.96875 -11.34375 12.65625 -11.8125 C 11.34375 -12.28125 10.316406 -12.707031 9.578125 -13.09375 C 7.691406 -14.070312 6.203125 -15.175781 5.109375 -16.40625 C 4.015625 -17.644531 3.46875 -19.285156 3.46875 -21.328125 C 3.46875 -24.378906 4.648438 -26.753906 7.015625 -28.453125 C 9.390625 -30.160156 12.59375 -31.015625 16.625 -31.015625 Z M 16.625 -31.015625 "/></g></g></g><g fill="#ffffff" fill-opacity="1"><g transform="translate(141.619203, 53.416546)"><g><path d="M 5.578125 -3.734375 C 2.753906 -6.804688 1.34375 -10.570312 1.34375 -15.03125 C 1.34375 -19.5 2.753906 -23.28125 5.578125 -26.375 C 8.398438 -29.46875 11.984375 -31.015625 16.328125 -31.015625 C 20.328125 -31.015625 23.617188 -29.765625 26.203125 -27.265625 L 26.203125 -30.140625 L 36.59375 -30.140625 L 36.59375 0 L 26.3125 0 L 26.3125 -3.40625 L 26.203125 -3.40625 C 23.617188 -0.550781 20.328125 0.875 16.328125 0.875 C 11.984375 0.875 8.398438 -0.660156 5.578125 -3.734375 Z M 14.421875 -20.15625 C 13.066406 -18.820312 12.390625 -17.113281 12.390625 -15.03125 C 12.390625 -12.957031 13.035156 -11.265625 14.328125 -9.953125 C 15.628906 -8.640625 17.335938 -7.984375 19.453125 -7.984375 C 21.484375 -7.984375 23.15625 -8.648438 24.46875 -9.984375 C 25.78125 -11.316406 26.4375 -13.003906 26.4375 -15.046875 C 26.4375 -17.117188 25.757812 -18.820312 24.40625 -20.15625 C 23.0625 -21.488281 21.410156 -22.15625 19.453125 -22.15625 C 17.453125 -22.15625 15.773438 -21.488281 14.421875 -20.15625 Z M 14.421875 -20.15625 "/></g></g></g><g fill="#ffffff" fill-opacity="1"><g transform="translate(92.639335, 69.34117)"><g><path d="M 6.9375 -8.265625 C 7.101562 -8.265625 7.242188 -8.210938 7.359375 -8.109375 C 7.472656 -8.003906 7.53125 -7.867188 7.53125 -7.703125 L 7.53125 -0.578125 C 7.519531 -0.410156 7.457031 -0.269531 7.34375 -0.15625 C 7.238281 -0.0507812 7.097656 0 6.921875 0 C 6.765625 0 6.628906 -0.0507812 6.515625 -0.15625 C 6.398438 -0.269531 6.34375 -0.410156 6.34375 -0.578125 L 6.34375 -3.640625 L 2.15625 -3.640625 L 2.15625 -0.578125 C 2.15625 -0.410156 2.09375 -0.269531 1.96875 -0.15625 C 1.851562 -0.0507812 1.71875 0 1.5625 0 C 1.382812 0 1.242188 -0.0507812 1.140625 -0.15625 C 1.035156 -0.269531 0.984375 -0.410156 0.984375 -0.578125 L 0.984375 -7.703125 C 0.984375 -7.859375 1.035156 -7.988281 1.140625 -8.09375 C 1.253906 -8.207031 1.398438 -8.265625 1.578125 -8.265625 C 1.734375 -8.265625 1.867188 -8.207031 1.984375 -8.09375 C 2.097656 -7.988281 2.15625 -7.859375 2.15625 -7.703125 L 2.15625 -4.71875 L 6.34375 -4.71875 L 6.34375 -7.703125 C 6.34375 -7.859375 6.398438 -7.988281 6.515625 -8.09375 C 6.640625 -8.207031 6.78125 -8.265625 6.9375 -8.265625 Z M 6.9375 -8.265625 "/></g></g></g><g fill="#ffffff" fill-opacity="1"><g transform="translate(106.550688, 69.34117)"><g><path d="M 5.65625 -1.09375 C 5.820312 -1.09375 5.957031 -1.035156 6.0625 -0.921875 C 6.164062 -0.804688 6.21875 -0.675781 6.21875 -0.53125 C 6.21875 -0.375 6.164062 -0.242188 6.0625 -0.140625 C 5.957031 -0.046875 5.820312 0 5.65625 0 L 1.546875 0 C 1.390625 0 1.253906 -0.0507812 1.140625 -0.15625 C 1.035156 -0.269531 0.984375 -0.40625 0.984375 -0.5625 L 0.984375 -7.703125 C 0.984375 -7.859375 1.035156 -7.988281 1.140625 -8.09375 C 1.253906 -8.207031 1.390625 -8.265625 1.546875 -8.265625 L 5.65625 -8.265625 C 5.820312 -8.265625 5.957031 -8.210938 6.0625 -8.109375 C 6.164062 -8.015625 6.21875 -7.882812 6.21875 -7.71875 C 6.21875 -7.5625 6.164062 -7.429688 6.0625 -7.328125 C 5.957031 -7.234375 5.820312 -7.1875 5.65625 -7.1875 L 2.15625 -7.1875 L 2.15625 -4.765625 L 5.125 -4.765625 C 5.289062 -4.765625 5.425781 -4.710938 5.53125 -4.609375 C 5.632812 -4.515625 5.6875 -4.390625 5.6875 -4.234375 C 5.6875 -4.066406 5.632812 -3.9375 5.53125 -3.84375 C 5.425781 -3.75 5.289062 -3.703125 5.125 -3.703125 L 2.15625 -3.703125 L 2.15625 -1.09375 Z M 5.65625 -1.09375 "/></g></g></g><g fill="#ffffff" fill-opacity="1"><g transform="translate(118.701367, 69.34117)"><g><path d="M 5.546875 -1.09375 C 5.703125 -1.09375 5.832031 -1.039062 5.9375 -0.9375 C 6.050781 -0.84375 6.109375 -0.710938 6.109375 -0.546875 C 6.109375 -0.390625 6.050781 -0.257812 5.9375 -0.15625 C 5.832031 -0.0507812 5.703125 0 5.546875 0 L 1.546875 0 C 1.378906 0 1.242188 -0.0507812 1.140625 -0.15625 C 1.035156 -0.269531 0.984375 -0.40625 0.984375 -0.5625 L 0.984375 -7.703125 C 0.984375 -7.859375 1.035156 -7.988281 1.140625 -8.09375 C 1.253906 -8.207031 1.398438 -8.265625 1.578125 -8.265625 C 1.734375 -8.265625 1.867188 -8.207031 1.984375 -8.09375 C 2.097656 -7.988281 2.15625 -7.859375 2.15625 -7.703125 L 2.15625 -1.09375 Z M 5.546875 -1.09375 "/></g></g></g><g fill="#ffffff" fill-opacity="1"><g transform="translate(130.61572, 69.34117)"><g><path d="M 7.328125 -0.734375 C 7.359375 -0.660156 7.375 -0.585938 7.375 -0.515625 C 7.375 -0.347656 7.316406 -0.210938 7.203125 -0.109375 C 7.097656 -0.015625 6.976562 0.03125 6.84375 0.03125 C 6.726562 0.03125 6.625 0 6.53125 -0.0625 C 6.445312 -0.132812 6.375 -0.226562 6.3125 -0.34375 L 5.59375 -2.078125 L 1.9375 -2.078125 L 1.21875 -0.328125 C 1.175781 -0.210938 1.109375 -0.125 1.015625 -0.0625 C 0.929688 0 0.832031 0.03125 0.71875 0.03125 C 0.550781 0.03125 0.425781 -0.0078125 0.34375 -0.09375 C 0.257812 -0.175781 0.21875 -0.296875 0.21875 -0.453125 C 0.21875 -0.484375 0.222656 -0.546875 0.234375 -0.640625 L 3.25 -7.9375 C 3.300781 -8.0625 3.375 -8.15625 3.46875 -8.21875 C 3.570312 -8.289062 3.6875 -8.316406 3.8125 -8.296875 C 3.9375 -8.296875 4.046875 -8.265625 4.140625 -8.203125 C 4.234375 -8.140625 4.296875 -8.050781 4.328125 -7.9375 Z M 2.390625 -3.15625 L 5.140625 -3.15625 L 3.75 -6.46875 Z M 2.390625 -3.15625 "/></g></g></g><g fill="#ffffff" fill-opacity="1"><g transform="translate(143.617198, 69.34117)"><g><path d="M 4.453125 -8.265625 C 5.191406 -8.265625 5.820312 -8.078125 6.34375 -7.703125 C 6.875 -7.335938 7.273438 -6.84375 7.546875 -6.21875 C 7.816406 -5.59375 7.953125 -4.898438 7.953125 -4.140625 C 7.953125 -3.367188 7.816406 -2.664062 7.546875 -2.03125 C 7.273438 -1.40625 6.875 -0.910156 6.34375 -0.546875 C 5.820312 -0.179688 5.191406 0 4.453125 0 L 1.546875 0 C 1.390625 0 1.253906 -0.0507812 1.140625 -0.15625 C 1.035156 -0.269531 0.984375 -0.40625 0.984375 -0.5625 L 0.984375 -7.703125 C 0.984375 -7.859375 1.035156 -7.988281 1.140625 -8.09375 C 1.253906 -8.207031 1.390625 -8.265625 1.546875 -8.265625 Z M 4.328125 -1.09375 C 5.140625 -1.09375 5.742188 -1.375 6.140625 -1.9375 C 6.546875 -2.507812 6.75 -3.242188 6.75 -4.140625 C 6.75 -5.015625 6.546875 -5.738281 6.140625 -6.3125 C 5.734375 -6.894531 5.128906 -7.1875 4.328125 -7.1875 L 2.15625 -7.1875 L 2.15625 -1.09375 Z M 4.328125 -1.09375 "/></g></g></g><g fill="#ffffff" fill-opacity="1"><g transform="translate(157.504916, 69.34117)"><g><path d="M 8.5 -4.140625 C 8.5 -3.335938 8.328125 -2.613281 7.984375 -1.96875 C 7.640625 -1.320312 7.160156 -0.8125 6.546875 -0.4375 C 5.941406 -0.0625 5.257812 0.125 4.5 0.125 C 3.738281 0.125 3.050781 -0.0625 2.4375 -0.4375 C 1.832031 -0.8125 1.359375 -1.320312 1.015625 -1.96875 C 0.679688 -2.613281 0.515625 -3.335938 0.515625 -4.140625 C 0.515625 -4.929688 0.679688 -5.648438 1.015625 -6.296875 C 1.359375 -6.941406 1.832031 -7.453125 2.4375 -7.828125 C 3.050781 -8.203125 3.738281 -8.390625 4.5 -8.390625 C 5.257812 -8.390625 5.941406 -8.203125 6.546875 -7.828125 C 7.160156 -7.453125 7.640625 -6.941406 7.984375 -6.296875 C 8.328125 -5.648438 8.5 -4.929688 8.5 -4.140625 Z M 7.28125 -4.140625 C 7.28125 -4.722656 7.160156 -5.253906 6.921875 -5.734375 C 6.679688 -6.210938 6.347656 -6.585938 5.921875 -6.859375 C 5.503906 -7.128906 5.03125 -7.265625 4.5 -7.265625 C 3.96875 -7.265625 3.488281 -7.128906 3.0625 -6.859375 C 2.644531 -6.597656 2.316406 -6.226562 2.078125 -5.75 C 1.835938 -5.269531 1.71875 -4.734375 1.71875 -4.140625 C 1.71875 -3.546875 1.835938 -3.007812 2.078125 -2.53125 C 2.316406 -2.050781 2.644531 -1.675781 3.0625 -1.40625 C 3.488281 -1.132812 3.96875 -1 4.5 -1 C 5.03125 -1 5.503906 -1.132812 5.921875 -1.40625 C 6.347656 -1.675781 6.679688 -2.050781 6.921875 -2.53125 C 7.160156 -3.007812 7.28125 -3.546875 7.28125 -4.140625 Z M 7.28125 -4.140625 "/></g></g></g><g fill="#ffffff" fill-opacity="1"><g transform="translate(171.924374, 69.34117)"><g><path d="M 3.484375 0.125 C 2.910156 0.125 2.398438 0.046875 1.953125 -0.109375 C 1.515625 -0.273438 1.097656 -0.539062 0.703125 -0.90625 C 0.535156 -1.050781 0.453125 -1.210938 0.453125 -1.390625 C 0.453125 -1.535156 0.503906 -1.664062 0.609375 -1.78125 C 0.722656 -1.894531 0.851562 -1.953125 1 -1.953125 C 1.132812 -1.953125 1.25 -1.90625 1.34375 -1.8125 C 1.65625 -1.519531 1.976562 -1.304688 2.3125 -1.171875 C 2.65625 -1.035156 3.039062 -0.96875 3.46875 -0.96875 C 3.957031 -0.96875 4.375 -1.082031 4.71875 -1.3125 C 5.0625 -1.539062 5.234375 -1.828125 5.234375 -2.171875 C 5.222656 -2.578125 5.050781 -2.894531 4.71875 -3.125 C 4.382812 -3.351562 3.875 -3.539062 3.1875 -3.6875 C 2.375 -3.851562 1.75 -4.125 1.3125 -4.5 C 0.875 -4.875 0.65625 -5.398438 0.65625 -6.078125 C 0.65625 -6.535156 0.773438 -6.9375 1.015625 -7.28125 C 1.265625 -7.632812 1.601562 -7.90625 2.03125 -8.09375 C 2.46875 -8.289062 2.960938 -8.390625 3.515625 -8.390625 C 3.992188 -8.390625 4.453125 -8.3125 4.890625 -8.15625 C 5.328125 -8 5.675781 -7.789062 5.9375 -7.53125 C 6.125 -7.363281 6.21875 -7.191406 6.21875 -7.015625 C 6.21875 -6.867188 6.160156 -6.738281 6.046875 -6.625 C 5.941406 -6.519531 5.816406 -6.46875 5.671875 -6.46875 C 5.554688 -6.46875 5.460938 -6.5 5.390625 -6.5625 C 5.191406 -6.769531 4.910156 -6.941406 4.546875 -7.078125 C 4.179688 -7.222656 3.835938 -7.296875 3.515625 -7.296875 C 2.984375 -7.296875 2.5625 -7.1875 2.25 -6.96875 C 1.9375 -6.757812 1.78125 -6.476562 1.78125 -6.125 C 1.78125 -5.738281 1.9375 -5.441406 2.25 -5.234375 C 2.5625 -5.023438 3.023438 -4.851562 3.640625 -4.71875 C 4.253906 -4.582031 4.753906 -4.421875 5.140625 -4.234375 C 5.535156 -4.054688 5.835938 -3.804688 6.046875 -3.484375 C 6.253906 -3.160156 6.359375 -2.738281 6.359375 -2.21875 C 6.359375 -1.757812 6.226562 -1.351562 5.96875 -1 C 5.71875 -0.644531 5.375 -0.367188 4.9375 -0.171875 C 4.5 0.0234375 4.015625 0.125 3.484375 0.125 Z M 3.484375 0.125 "/></g></g></g></svg>